<svg width="41" height="41" viewBox="0 0 41 41" fill="none" xmlns="http://www.w3.org/2000/svg">
<path d="M19.0266 0.799744C19.2445 -0.266583 20.7681 -0.266582 20.986 0.799754L23.947 15.2862C24.0272 15.6787 24.3339 15.9854 24.7264 16.0656L39.2128 19.0266C40.2792 19.2445 40.2792 20.7681 39.2128 20.986L24.7264 23.947C24.3339 24.0272 24.0272 24.3339 23.947 24.7264L20.986 39.2128C20.7681 40.2792 19.2445 40.2792 19.0266 39.2128L16.0656 24.7264C15.9854 24.3339 15.6787 24.0272 15.2862 23.947L0.799744 20.986C-0.266583 20.7681 -0.266582 19.2445 0.799754 19.0266L15.2862 16.0656C15.6787 15.9854 15.9854 15.6787 16.0656 15.2862L19.0266 0.799744Z" fill="url(#paint0_linear_355_70)"/>
<defs>
<linearGradient id="paint0_linear_355_70" x1="34.175" y1="-0.740693" x2="7.78942" y2="37.8617" gradientUnits="userSpaceOnUse">
<stop stop-color="#F27CF4"/>
<stop offset="0.25" stop-color="#F070EC"/>
<stop offset="0.5" stop-color="#B558DA"/>
<stop offset="0.75" stop-color="#7370F0"/>
<stop offset="1" stop-color="#7C8FF4"/>
</linearGradient>
</defs>
</svg>
